<svg width="59" height="56" viewBox="0 0 59 56" fill="none" xmlns="http://www.w3.org/2000/svg">
<path d="M41.1564 35.9264L39.6634 37.418C39.6634 37.418 36.1148 40.9641 26.429 31.285C16.7433 21.6062 20.2917 18.0603 20.2917 18.0603L21.2318 17.1208C23.5479 14.8066 23.7662 11.091 21.7454 8.37853L17.6123 2.82991C15.1115 -0.527335 10.279 -0.970823 7.41252 1.89355L2.26772 7.03466C0.846414 8.45496 -0.106042 10.2961 0.00946686 12.3385C0.304958 17.5637 2.65732 28.8061 15.7837 41.923C29.7035 55.8328 42.7645 56.3856 48.1056 55.8852C49.795 55.7271 51.2641 54.8624 52.448 53.6791L57.1044 49.0265C60.2475 45.8855 59.3611 40.5009 55.3396 38.3041L49.0775 34.8828C46.4369 33.4403 43.2201 33.8639 41.1564 35.9264Z" fill="#20E9FF"/>
</svg>
